<mxfile>
    <diagram id="w4NRJRUbfX9qJH2JdgkT" name="Page-1">
        <mxGraphModel dx="399" dy="402" grid="1" gridSize="10" guides="1" tooltips="1" connect="1" arrows="1" fold="1" page="1" pageScale="1" pageWidth="850" pageHeight="1100" math="0" shadow="0">
            <root>
                <mxCell id="0"/>
                <mxCell id="1" parent="0"/>
                <mxCell id="7" value="" style="group" parent="1" vertex="1" connectable="0">
                    <mxGeometry y="10" width="850" height="630" as="geometry"/>
                </mxCell>
                <mxCell id="8" value="" style="strokeWidth=1;shadow=0;dashed=0;align=center;html=1;shape=mxgraph.mockup.containers.browserWindow;rSize=0;strokeColor=#666666;strokeColor2=#008cff;strokeColor3=#c4c4c4;mainText=,;recursiveResize=0;container=0;" parent="7" vertex="1">
                    <mxGeometry width="850" height="630" as="geometry"/>
                </mxCell>
                <mxCell id="25" value="" style="rounded=0;whiteSpace=wrap;html=1;strokeWidth=4;dashed=1;fillColor=none;" parent="7" vertex="1">
                    <mxGeometry x="660" y="140" width="180" height="420" as="geometry"/>
                </mxCell>
                <mxCell id="9" value="" style="rounded=0;whiteSpace=wrap;html=1;strokeWidth=4;dashed=1;fillColor=none;" parent="7" vertex="1">
                    <mxGeometry x="50" y="230" width="540" height="320" as="geometry"/>
                </mxCell>
                <mxCell id="10" value="" style="rounded=0;whiteSpace=wrap;html=1;strokeWidth=4;dashed=1;fillColor=none;" parent="7" vertex="1">
                    <mxGeometry x="50" y="140" width="540" height="80" as="geometry"/>
                </mxCell>
                <mxCell id="11" value="Page 1" style="strokeWidth=1;shadow=0;dashed=0;align=center;html=1;shape=mxgraph.mockup.containers.anchor;fontSize=17;fontColor=#666666;align=left;" parent="7" vertex="1">
                    <mxGeometry x="60" y="12" width="110" height="26" as="geometry"/>
                </mxCell>
                <mxCell id="12" value="https://www.draw.io" style="strokeWidth=1;shadow=0;dashed=0;align=center;html=1;shape=mxgraph.mockup.containers.anchor;rSize=0;fontSize=17;fontColor=#666666;align=left;" parent="7" vertex="1">
                    <mxGeometry x="130" y="60" width="250" height="26" as="geometry"/>
                </mxCell>
                <mxCell id="13" value="&lt;font color=&quot;#000000&quot;&gt;&lt;span style=&quot;font-size: 24px&quot;&gt;&lt;b&gt;apple&lt;/b&gt;&lt;/span&gt;&lt;/font&gt;" style="rounded=1;arcSize=9;fillColor=#F7F8F9;align=left;spacingLeft=5;strokeColor=#DEE1E6;html=1;strokeWidth=2;fontSize=12" parent="7" vertex="1">
                    <mxGeometry x="100" y="160" width="400" height="40" as="geometry"/>
                </mxCell>
                <mxCell id="14" value="" style="html=1;verticalLabelPosition=bottom;align=center;labelBackgroundColor=#ffffff;verticalAlign=top;strokeWidth=10;shadow=0;dashed=0;shape=mxgraph.ios7.icons.looking_glass;" parent="7" vertex="1">
                    <mxGeometry x="530" y="162.5" width="40" height="37.5" as="geometry"/>
                </mxCell>
                <mxCell id="15" value="&lt;span style=&quot;font-size: 24px&quot;&gt;&lt;b&gt;apple&lt;/b&gt;&lt;/span&gt;" style="rounded=1;whiteSpace=wrap;html=1;strokeWidth=10;" parent="7" vertex="1">
                    <mxGeometry x="100" y="260" width="410" height="60" as="geometry"/>
                </mxCell>
                <mxCell id="18" value="&lt;span style=&quot;font-size: 18px&quot;&gt;&lt;b&gt;apple pie&lt;/b&gt;&lt;/span&gt;" style="ellipse;whiteSpace=wrap;html=1;aspect=fixed;strokeWidth=10;" parent="7" vertex="1">
                    <mxGeometry x="720" y="250" width="80" height="80" as="geometry"/>
                </mxCell>
                <mxCell id="21" value="&lt;b&gt;&lt;font style=&quot;font-size: 24px&quot;&gt;Recommended for you&lt;/font&gt;&lt;/b&gt;" style="text;html=1;strokeColor=none;fillColor=none;align=center;verticalAlign=middle;whiteSpace=wrap;rounded=0;" parent="7" vertex="1">
                    <mxGeometry x="660" y="145" width="180" height="70" as="geometry"/>
                </mxCell>
            </root>
        </mxGraphModel>
    </diagram>
</mxfile>